<svg xmlns="http://www.w3.org/2000/svg" viewBox="0 0 99.56 115.54"><defs><style>.cls-1,.cls-2{fill:#f2f2f2;}.cls-1{fill-rule:evenodd;}.cls-3{fill:#fff;}</style></defs><g id="Layer_2" data-name="Layer 2"><g id="Layer_1-2" data-name="Layer 1"><path class="cls-1" d="M22.7,99.24l1-1.55A23.78,23.78,0,0,1,21.3,96l-1.1,1.49A25.55,25.55,0,0,0,22.7,99.24Z"/><path class="cls-1" d="M27.45,102l.83-1.66a18.39,18.39,0,0,1-2.58-1.4l-.93,1.6A19.29,19.29,0,0,0,27.45,102Z"/><path class="cls-1" d="M32.46,104.13l.64-1.74a26.7,26.7,0,0,1-2.73-1.08L29.62,103A25.83,25.83,0,0,0,32.46,104.13Z"/><polygon class="cls-1" points="10.62 88.18 12.08 87.03 10.32 84.68 8.79 85.73 10.62 88.18"/><polygon class="cls-1" points="14.21 92.31 15.54 91.01 13.56 88.83 12.16 90.05 14.21 92.31"/><polygon class="cls-1" points="18.23 96.01 19.4 94.57 17.22 92.61 15.96 93.96 18.23 96.01"/><path class="cls-1" d="M2.78,73.8l1.75-.61a17.16,17.16,0,0,1-.88-2.8l-1.78.5A18.52,18.52,0,0,0,2.78,73.8Z"/><path class="cls-1" d="M4.86,78.86l1.67-.79a25.53,25.53,0,0,1-1.2-2.68l-1.72.69A25.65,25.65,0,0,0,4.86,78.86Z"/><path class="cls-1" d="M7.47,83.65l1.58-1c-.5-.85-1-1.67-1.51-2.53L5.9,81C6.4,81.92,7,82.78,7.47,83.65Z"/><polygon class="cls-1" points="0 57.66 1.85 57.65 1.99 54.71 0.14 54.6 0 57.66"/><path class="cls-1" d="M.33,63.12l1.84-.2C2,62,2.05,61,2,60l-1.85.1C.2,61.09.17,62.12.33,63.12Z"/><path class="cls-1" d="M1.25,68.5l1.81-.41a21.8,21.8,0,0,1-.54-2.88L.69,65.5A23,23,0,0,0,1.25,68.5Z"/><polygon class="cls-1" points="2.67 41.49 4.42 42.09 5.43 39.33 3.72 38.62 2.67 41.49"/><polygon class="cls-1" points="1.18 46.76 3 47.16 3.73 44.31 1.95 43.8 1.18 46.76"/><polygon class="cls-1" points="0.29 52.15 2.13 52.34 2.58 49.44 0.75 49.13 0.29 52.15"/><path class="cls-1" d="M10.43,27.07l1.47,1.14a17,17,0,0,1,1.87-2.27l-1.4-1.22A19.85,19.85,0,0,0,10.43,27.07Z"/><path class="cls-1" d="M7.33,31.58l1.58,1a23.6,23.6,0,0,1,1.59-2.47L9,29A26.69,26.69,0,0,0,7.33,31.58Z"/><polygon class="cls-1" points="4.74 36.38 6.42 37.17 7.71 34.53 6.08 33.64 4.74 36.38"/><polygon class="cls-1" points="22.43 15.92 23.45 17.47 25.96 15.94 25.04 14.33 22.43 15.92"/><polygon class="cls-1" points="18.02 19.17 19.2 20.59 21.55 18.82 20.45 17.33 18.02 19.17"/><path class="cls-1" d="M14,22.89l1.33,1.29a25.54,25.54,0,0,1,2.13-2l-1.25-1.37A27.61,27.61,0,0,0,14,22.89Z"/><polygon class="cls-1" points="32.2 10.97 32.85 12.7 35.62 11.7 35.07 9.93 32.2 10.97"/><polygon class="cls-1" points="27.2 13.16 28.05 14.81 30.7 13.54 29.96 11.84 27.2 13.16"/><polygon class="cls-1" points="69.63 11.85 68.89 13.55 71.54 14.83 72.39 13.18 69.63 11.85"/><polygon class="cls-1" points="64.5 9.93 63.96 11.7 66.72 12.7 67.38 10.97 64.5 9.93"/><path class="cls-1" d="M83.35,20.8,82.1,22.17a27.19,27.19,0,0,1,2.12,2l1.33-1.29A27.53,27.53,0,0,0,83.35,20.8Z"/><polygon class="cls-1" points="79.12 17.33 78.02 18.83 80.37 20.6 81.55 19.18 79.12 17.33"/><polygon class="cls-1" points="74.55 14.35 73.62 15.96 76.14 17.48 77.16 15.94 74.55 14.35"/><polygon class="cls-1" points="93.5 33.66 91.87 34.55 93.16 37.2 94.83 36.41 93.5 33.66"/><path class="cls-1" d="M90.59,29l-1.52,1.07a25.35,25.35,0,0,1,1.59,2.47l1.58-1A26.69,26.69,0,0,0,90.59,29Z"/><path class="cls-1" d="M87.21,24.74,85.81,26a18.33,18.33,0,0,1,1.87,2.27l1.47-1.13A19.17,19.17,0,0,0,87.21,24.74Z"/><polygon class="cls-1" points="98.82 49.16 96.99 49.47 97.43 52.38 99.28 52.18 98.82 49.16"/><polygon class="cls-1" points="97.62 43.82 95.84 44.33 96.57 47.17 98.38 46.78 97.62 43.82"/><polygon class="cls-1" points="95.85 38.65 94.14 39.35 95.15 42.12 96.9 41.52 95.85 38.65"/><path class="cls-1" d="M98.86,65.53,97,65.24a20.28,20.28,0,0,1-.54,2.88l1.81.41A21.72,21.72,0,0,0,98.86,65.53Z"/><path class="cls-1" d="M99.44,60.09,97.59,60c-.08,1,0,2-.2,2.94l1.84.21C99.39,62.13,99.36,61.11,99.44,60.09Z"/><path class="cls-1" d="M99.42,54.64l-1.85.1c.05,1,.12,2,.14,2.94h1.85C99.55,56.67,99.47,55.65,99.42,54.64Z"/><path class="cls-1" d="M93.64,81.06,92,80.18c-.48.86-1,1.68-1.51,2.52l1.57,1C92.6,82.81,93.15,82,93.64,81.06Z"/><path class="cls-1" d="M96,76.09l-1.72-.69A26.81,26.81,0,0,1,93,78.08l1.68.8A27.91,27.91,0,0,0,96,76.09Z"/><path class="cls-1" d="M97.69,70.92l-1.79-.5a18.19,18.19,0,0,1-.88,2.8l1.75.61A18.55,18.55,0,0,0,97.69,70.92Z"/><path class="cls-1" d="M83.58,94l-1.26-1.35c-.73.65-1.44,1.33-2.19,2L81.31,96C82.08,95.37,82.82,94.66,83.58,94Z"/><polygon class="cls-1" points="87.39 90.06 85.99 88.84 84.01 91.02 85.34 92.32 87.39 90.06"/><polygon class="cls-1" points="90.75 85.76 89.23 84.7 87.47 87.06 88.92 88.2 90.75 85.76"/><path class="cls-1" d="M69.91,103l-.75-1.69a23.83,23.83,0,0,1-2.73,1.08l.65,1.74A25.67,25.67,0,0,0,69.91,103Z"/><path class="cls-1" d="M74.78,100.51l-.93-1.6a17.35,17.35,0,0,1-2.58,1.39L72.1,102A19.23,19.23,0,0,0,74.78,100.51Z"/><path class="cls-1" d="M79.34,97.5,78.23,96a23.55,23.55,0,0,1-2.4,1.69l1,1.56A26.81,26.81,0,0,0,79.34,97.5Z"/><path class="cls-2" d="M50.73,23.09h-.06a11.51,11.51,0,1,1,8.15-3.34A11.39,11.39,0,0,1,50.73,23.09ZM50.67,1.85a9.7,9.7,0,0,0,0,19.39s0,0,.06,0a9.66,9.66,0,0,0,9.64-9.69A9.71,9.71,0,0,0,50.67,1.85Z"/><path class="cls-2" d="M42.79,115.54h-.12c-3-.05-6.31-2.36-6.31-7.32V44.92L34,65.25c0,7.17-10.67,7.27-10.67-.11L25.84,41c0-7,5.42-14.6,14.19-14.6H61.31c8.49,0,14.2,7.6,14.2,14.7l2.47,24c0,7.38-11,7.38-11,0L65,47.28v60.94c0,4.68-3.25,7.21-6.47,7.3-3,.09-6.47-2.14-6.75-7.22V68.15H49.58v40.07C49.41,113.06,46.06,115.54,42.79,115.54Zm-8-72.9h3.45v65.58c0,3.72,2.26,5.43,4.5,5.47s4.89-1.66,5-5.5V66.29h5.88v42c.22,3.81,2.61,5.46,4.85,5.42s4.67-1.8,4.67-5.45V42.64h3.18L68.88,65a3.54,3.54,0,0,0,3.63,3.87,3.49,3.49,0,0,0,3.62-3.72l-2.47-24c0-6.29-5-12.93-12.35-12.93H40c-7.62,0-12.34,6.66-12.34,12.84L25.21,65.24c0,5,7,5.1,7-.1Z"/><path class="cls-3" d="M50.63,46.2h0a.91.91,0,0,1-.66-.27l-6-6.06a.91.91,0,0,1-.27-.65,1,1,0,0,1,.27-.66l6-6.05a.93.93,0,0,1,1.31,0l6.06,6.06a.93.93,0,0,1,0,1.31l-6.05,6A.91.91,0,0,1,50.63,46.2Zm-4.74-7L50.63,44l4.74-4.75-4.74-4.74Z"/></g></g></svg>