<svg xmlns="http://www.w3.org/2000/svg" viewBox="0 0 25.35 25.35"><defs><style>.cls-1{fill:#010642;}.cls-2{fill:#03d5e8;}</style></defs><g id="Layer_2" data-name="Layer 2"><g id="ASSETS"><circle class="cls-1" cx="12.67" cy="12.67" r="12.67"/><circle class="cls-2" cx="12.75" cy="6.59" r="2.44"/><path class="cls-2" d="M11.34,19.32V11.87a1.42,1.42,0,0,1,1.41-1.42h0a1.42,1.42,0,0,1,1.42,1.42v7.45a1.42,1.42,0,0,1-1.42,1.42h0A1.42,1.42,0,0,1,11.34,19.32Z"/><circle class="cls-2" cx="12.75" cy="6.59" r="2.44"/><path class="cls-2" d="M11.34,19.32V11.87a1.42,1.42,0,0,1,1.41-1.42h0a1.42,1.42,0,0,1,1.42,1.42v7.45a1.42,1.42,0,0,1-1.42,1.42h0A1.42,1.42,0,0,1,11.34,19.32Z"/></g></g></svg>