<svg width="47.99999999999999" height="47.99999999999999" xmlns="http://www.w3.org/2000/svg" xmlns:svg="http://www.w3.org/2000/svg" xmlns:xlink="http://www.w3.org/1999/xlink">
 <!-- Created with SVG-edit - http://www.86y.org/demo/svg/-->
 <defs>
  <symbol id="svg_15" viewBox="-4 0 64 64" height="800px" width="800px" xmlns:xlink="http://www.w3.org/1999/xlink" xmlns="http://www.w3.org/2000/svg">
   <g id="svg_14">
    <g>
     <circle fill="#F06EAA" r="8" cy="8" cx="28"/>
    </g>
   </g>
   <g id="svg_13">
    <g>
     <path fill="#E6E6E6" d="m36,8l-16,0c-11.046,0 -20,8.954 -20,20l0,16c0,11.045 8.954,20 20,20l16,0c11.045,0 20,-8.955 20,-20l0,-16c0,-11.046 -8.955,-20 -20,-20z"/>
    </g>
   </g>
   <g id="svg_12">
    <g>
     <path fill="#FFA564" d="m40,18l-24,0c-4.418,0 -8,3.582 -8,8l0,20c0,4.418 3.582,8 8,8l24,0c4.418,0 8,-3.582 8,-8l0,-20c0,-4.418 -3.582,-8 -8,-8z"/>
    </g>
   </g>
   <g id="svg_11">
    <g>
     <path fill-rule="evenodd" clip-rule="evenodd" fill="#4D311E" d="m18,28c-1.104,0 -2,0.895 -2,2l0,12c0,1.104 0.896,2 2,2s2,-0.896 2,-2l0,-12c0,-1.105 -0.896,-2 -2,-2zm20,0c-1.104,0 -2,0.895 -2,2l0,12c0,1.104 0.896,2 2,2s2,-0.896 2,-2l0,-12c0,-1.105 -0.896,-2 -2,-2z"/>
    </g>
   </g>
   <g id="svg_10">
    <g>
     <path fill-rule="evenodd" clip-rule="evenodd" fill="#333333" d="m47.913,19.675c-0.292,-1.198 -1.416,-1.909 -2.508,-1.588l-11.869,3.487c-1.093,0.32 -1.741,1.553 -1.448,2.75c0.293,1.198 1.416,1.909 2.508,1.588l11.869,-3.487c1.092,-0.321 1.74,-1.552 1.448,-2.75zm-25.448,1.899l-11.87,-3.487c-1.092,-0.321 -2.215,0.39 -2.508,1.588s0.355,2.43 1.448,2.75l11.869,3.487c1.093,0.321 2.216,-0.39 2.508,-1.588c0.294,-1.197 -0.355,-2.429 -1.447,-2.75z"/>
    </g>
   </g>
   <g/>
   <g/>
   <g/>
   <g/>
   <g/>
   <g/>
   <g/>
   <g/>
   <g/>
   <g/>
   <g/>
   <g/>
   <g/>
   <g/>
   <g/>
  </symbol>
 </defs>
 <g class="layer">
  <title>Layer 1</title>
  <g id="svg_4"/>
  <g id="svg_8"/>
  <use x="-2132.10686" y="-1679.95433" transform="matrix(0.06439758445962714,0,0,0.05604497761297463,136.04111824214394,95.27094268911043) " xlink:href="#svg_15" id="svg_16"/>
  <g id="svg_17"/>
 </g>
</svg>