<svg width="48" height="48" xmlns="http://www.w3.org/2000/svg" xmlns:svg="http://www.w3.org/2000/svg" xmlns:xlink="http://www.w3.org/1999/xlink">
 <!-- Created with SVG-edit - http://www.86y.org/demo/svg/-->
 <defs>
  <pattern id="gridpattern" patternUnits="userSpaceOnUse" x="0" y="0" width="100" height="100">
   <image id="svg_2" x="0" y="0" width="100" height="100"/>
  </pattern>
  <symbol viewBox="0 0 1024 1024" class="icon" id="svg_1" xmlns="http://www.w3.org/2000/svg">
   <path id="svg_3" d="m800,768l-170.66667,0a32,32 0 0 1 -32,-32l0,-298.66667a32,32 0 0 1 32,-32l256,0a32,32 0 0 1 32,32l0,213.33334c0,64.704 -52.65066,117.33333 -117.33333,117.33333zm-138.66667,-64l138.66667,0c29.41867,0 53.33333,-23.936 53.33333,-53.33333l0,-181.33334l-192,0l0,234.66667z" fill="#D1B43D"/>
   <path id="svg_4" d="m128,384l0,533.33333a85.33333,85.33333 0 0 0 85.33333,85.33334l469.33334,0a85.33333,85.33333 0 0 0 85.33333,-85.33334l0,-533.33333l-640,0z" fill="#EFD358"/>
   <path id="svg_5" d="m448,832a21.33333,21.33333 0 0 1 -21.33333,-21.33333l0,-277.33334a21.33333,21.33333 0 1 1 42.66666,0l0,277.33334a21.33333,21.33333 0 0 1 -21.33333,21.33333zm-149.33333,0a21.33333,21.33333 0 0 1 -21.33334,-21.33333l0,-277.33334a21.33333,21.33333 0 1 1 42.66667,0l0,277.33334a21.33333,21.33333 0 0 1 -21.33333,21.33333zm298.66666,0a21.33333,21.33333 0 0 1 -21.33333,-21.33333l0,-277.33334a21.33333,21.33333 0 1 1 42.66667,0l0,277.33334a21.33333,21.33333 0 0 1 -21.33334,21.33333z" fill="#D1B43D"/>
   <path id="svg_6" d="m704,213.33333l-8.384,0c-28.45867,-110.35733 -128.36267,-192 -247.616,-192s-219.15733,81.64267 -247.616,192l-8.384,0a106.66667,106.66667 0 0 0 0,213.33334l512,0a106.66667,106.66667 0 0 0 0,-213.33334zm-448,213.33334l0,192a42.66667,42.66667 0 1 0 85.33333,0l0,-192l-85.33333,0z" fill="#E6E6E6"/>
  </symbol>
 </defs>
 <g class="layer">
  <title>Layer 1</title>
  <g id="svg_79"/>
  <use id="svg_80" xlink:href="#svg_1" transform="matrix(1.1590160614963452,0,0,1.0053495434577469,-61.061850559808725,-11.940736472871372) " y="11.499709" x="50.383634"/>
  <g id="svg_81"/>
 </g>
</svg>