<svg width="48" height="48" xmlns="http://www.w3.org/2000/svg" xmlns:svg="http://www.w3.org/2000/svg" xmlns:xlink="http://www.w3.org/1999/xlink">
 <!-- Created with SVG-edit - http://www.86y.org/demo/svg/-->
 <defs>
  <pattern height="100" width="100" y="0" x="0" patternUnits="userSpaceOnUse" id="gridpattern">
   <image height="100" width="100" y="0" x="0"/>
  </pattern>
  <symbol id="svg_185" viewBox="0 0 24 24" height="800px" width="800px" xmlns="http://www.w3.org/2000/svg">
   <defs>
    <style>.cls-1{fill:#96ccee;}.cls-2{fill:#ffeabb;}.cls-3{fill:#f94060;}.cls-4{fill:#f7bf75;}.cls-5{fill:#6f73d5;}.cls-6{fill:#d62657;}</style>
   </defs>
   <g id="svg_184">
    <path d="m9.27,4.33a8.57,8.57 0 0 0 -7,10.42a8.32,8.32 0 0 0 3.37,5a8.59,8.59 0 0 0 7.92,1a1.26,1.26 0 0 0 0.58,-1.75l-3.58,-6.2l0,-7.33a1.14,1.14 0 0 0 -1.29,-1.14z" class="cls-1"/>
    <path d="m14.62,13.53a0.68,0.68 0 0 0 -0.57,0.33a0.67,0.67 0 0 0 0,0.67l3.08,5.33a1.13,1.13 0 0 0 1.68,0.34a8.54,8.54 0 0 0 3.19,-5.85a0.74,0.74 0 0 0 -0.2,-0.57a0.76,0.76 0 0 0 -0.55,-0.24l-6.63,-0.01z" class="cls-2"/>
    <path d="m13.06,2.67a0.21,0.21 0 0 0 -0.21,0.21l0,7.67a0.65,0.65 0 0 0 0.66,0.66l6.89,0a0.92,0.92 0 0 0 0.7,-0.31a0.93,0.93 0 0 0 0.24,-0.73a8.56,8.56 0 0 0 -8.28,-7.5z" class="cls-3"/>
    <path d="m19.81,13.53a8.56,8.56 0 0 1 -2.73,6.26l0.18,0.29a0.93,0.93 0 0 0 1.35,0.3a8.62,8.62 0 0 0 3.37,-6a0.74,0.74 0 0 0 -0.2,-0.57a0.76,0.76 0 0 0 -0.55,-0.24l-1.42,-0.04z" class="cls-4"/>
    <path d="m10.56,5.14a0.84,0.84 0 0 0 -1,-0.85a9.31,9.31 0 0 0 -1.26,0.24l0,5.7a9.63,9.63 0 0 0 1.33,4.77l2.44,4.22a1,1 0 0 1 -0.44,1.45a8.47,8.47 0 0 1 -2.18,0.59a10.34,10.34 0 0 0 1.11,0.07a8.54,8.54 0 0 0 3.44,-0.72a0.85,0.85 0 0 0 0.46,-0.52a0.81,0.81 0 0 0 -0.07,-0.68c-0.74,-1.3 -2.23,-3.89 -3.12,-5.42a5.17,5.17 0 0 1 -0.7,-2.6l-0.01,-6.25z" class="cls-5"/>
    <path d="m13.06,2.67a0.21,0.21 0 0 0 -0.21,0.21a0.37,0.37 0 0 0 0,0.08a8.54,8.54 0 0 1 6.34,8.25l1.21,0a0.92,0.92 0 0 0 0.7,-0.31a0.93,0.93 0 0 0 0.24,-0.73a8.56,8.56 0 0 0 -8.28,-7.5z" class="cls-6"/>
   </g>
  </symbol>
 </defs>
 <g class="layer">
  <title>Layer 1</title>
  <g id="svg_79"/>
  <g id="svg_163"/>
  <g id="svg_166"/>
  <g id="svg_173"/>
  <g id="svg_180"/>
  <g id="svg_183"/>
  <use x="502.08058" y="1103.35246" transform="matrix(0.06858245768232561,0,0,0.07102400532498489,-38.1530362452916,-82.97281961069771) " xlink:href="#svg_185" id="svg_186"/>
  <g id="svg_187"/>
 </g>
</svg>