<svg width="48" height="48" xmlns="http://www.w3.org/2000/svg" xmlns:svg="http://www.w3.org/2000/svg" xmlns:xlink="http://www.w3.org/1999/xlink">
 <!-- Created with SVG-edit - http://www.86y.org/demo/svg/-->
 <defs>
  <pattern id="gridpattern" patternUnits="userSpaceOnUse" x="0" y="0" width="100" height="100">
   <image id="svg_1" x="0" y="0" width="100" height="100"/>
  </pattern>
  <symbol id="svg_10" viewBox="0 0 120 120" height="800px" width="800px" xmlns:xlink="http://www.w3.org/1999/xlink" xmlns="http://www.w3.org/2000/svg">
   <style type="text/css">.st0{fill:#FFAA1F;}
	.st1{fill:#FFFFFF;}
	.st2{fill:#FFE966;}
	.st3{fill:#78F47A;}
	.st4{opacity:0.15;enable-background:new    ;}</style>
   <g>
    <path d="m87.7,99.5l-55.4,0c-3.1,0 -5.7,-2.6 -5.7,-5.7l0,-67.5c0,-3.1 2.6,-5.7 5.7,-5.7l55.3,0c3.1,0 5.7,2.6 5.7,5.7l0,67.7c0.1,3 -2.5,5.5 -5.6,5.5z" class="st0"/>
    <path d="m81.1,74.1l-41.9,0c-2,0 -3.5,-1.5 -3.5,-3.5l0,-38.2c0,-2 1.5,-3.5 3.5,-3.5l41.9,0c2,0 3.5,1.5 3.5,3.5l0,38.1c-0.2,2.1 -1.8,3.6 -3.5,3.6z" class="st1"/>
    <path d="m75.8,92.4l-31.6,0c-1.4,0 -2.4,-1 -2.4,-2.4l0,-5.3c0,-1.4 1,-2.4 2.4,-2.4l31.6,0c1.4,0 2.4,1 2.4,2.4l0,5.3c0,1.2 -1,2.4 -2.4,2.4z" class="st2"/>
    <g id="svg_9">
     <path d="m71.4,35.5l-22,0c-1.3,0 -2.2,0.9 -2.4,2.2l-3.1,26.9c-0.2,1.3 0.9,2.6 2.4,2.6l27.7,0c1.3,0 2.6,-1.3 2.4,-2.6l-2.6,-26.9c-0.2,-1.1 -1.1,-2.2 -2.4,-2.2z" class="st3"/>
     <g>
      <circle r="1.3" cy="40.4" cx="53.5" class="st4"/>
      <circle r="1.3" cy="40.4" cx="66.5" class="st4"/>
     </g>
     <g>
      <path d="m60.8,56c-1.8,0 -3.3,-0.2 -4.6,-0.9c-1.5,-0.7 -2.9,-1.8 -3.5,-3.1c-0.9,-1.5 -1.3,-3.7 -0.9,-6.2c0.2,-0.9 0.2,-1.8 0.4,-2.4c0.2,-1.1 0.4,-2.2 0.7,-3.3c0,-0.2 0.2,-0.4 0.7,-0.4c0.2,0 0.4,0.2 0.4,0.7c0,1.1 -0.4,2.4 -0.7,3.5c-0.2,0.9 -0.4,1.5 -0.4,2.4c-0.4,2.2 -0.2,4 0.7,5.3c0.7,1.1 1.8,2 3.1,2.6c1.3,0.4 2.6,0.7 4.2,0.7c1.1,0 2.6,0 3.7,-0.9c1.5,-0.9 2.4,-2.6 2.9,-4c1.1,-3.1 0.7,-6.6 -1.1,-9.5c-0.2,-0.2 0,-0.7 0.2,-0.7c0.2,-0.2 0.7,0 0.7,0.2c1.8,3.1 2.2,7.1 1.1,10.4c-0.4,1.5 -1.3,3.5 -3.3,4.6c-1.2,0.8 -3,1 -4.3,1z" class="st1"/>
     </g>
    </g>
   </g>
  </symbol>
 </defs>
 <g class="layer">
  <title>Layer 1</title>
  <use x="0" y="0" transform="matrix(0.08477734011537502,0,0,0.08779231777492415,-10.88143479049179,-10.981952265007546) " xlink:href="#svg_10" id="svg_11"/>
  <g id="svg_12"/>
 </g>
</svg>