<svg width="48" height="48" xmlns="http://www.w3.org/2000/svg" xmlns:svg="http://www.w3.org/2000/svg" xmlns:xlink="http://www.w3.org/1999/xlink">
 <!-- Created with SVG-edit - http://www.86y.org/demo/svg/-->
 <defs>
  <symbol viewBox="0 0 460 460" id="svg_8" xmlns:xlink="http://www.w3.org/1999/xlink" xmlns="http://www.w3.org/2000/svg">
   <g>
    <path fill="#38C6D9" d="m230,0c-127.026,0 -230,102.974 -230,230c0,97.49 60.656,180.813 146.287,214.291c25.943,10.142 54.178,15.709 83.713,15.709l219.259,-299.67c-29.514,-92.967 -116.52,-160.33 -219.259,-160.33z"/>
    <path fill="#5488A8" d="m460,230c0,-24.289 -3.777,-47.693 -10.755,-69.671l-44.787,-44.787l-21.624,21.626l-47.501,-47.501l-17.856,13.86l-58.002,-58.002l-71.975,71.975l-118.823,249.171l77.612,77.612c25.943,10.143 54.175,15.717 83.711,15.717c127.025,0 230,-102.975 230,-230z"/>
    <path fill="#FFC61B" d="m410.333,129.667l0,50c0,11 -9,20 -20,20l-160,0l0,-90l160,0c11,0 20,9 20,20z"/>
    <path fill="#FEE187" d="m230.333,109.667l0,90l-160,0c-11,0 -20,-9 -20,-20l0,-50c0,-11 9,-20 20,-20c0,0 160,0 160,0z"/>
    <path fill="#C2FBFF" d="m403.853,311.387c9.06,43.05 -19.52,78.28 -63.52,78.28l-110,0l-50,-170l170,-80l30,0l0,60l23.52,111.72z"/>
    <path fill="#FFFFFF" d="m230.333,159.667l0,230l-110,0c-44,0 -72.58,-35.23 -63.52,-78.28l23.52,-111.72l0,-60l30,0l120,20z"/>
    <polygon fill="#FFFFFF" points="209.476,109.667 125.333,109.667 125.333,89.667 201.191,89.667 238.262,52.595    252.405,66.738  "/>
    <circle fill="#FFFFFF" r="20" cy="59.667" cx="245.333"/>
    <polygon fill="#FEE187" points="251.191,109.667 335.333,109.667 335.333,89.667 259.476,89.667 222.405,52.595    208.262,66.738  "/>
    <circle fill="#FEE187" r="20" cy="59.667" cx="215.333"/>
    <path fill="#38C6D9" d="m350.333,202.786l24.16,114.78c2.49,11.8 0.43,22.53 -5.8,30.2c-6.23,7.67 -16.3,11.9 -28.36,11.9l-110,0l-40,-110l40,-110l120,0l0,63.12z"/>
    <path fill="#71E2F0" d="m230.333,139.667l0,220l-110,0c-12.06,0 -22.13,-4.23 -28.36,-11.9c-6.23,-7.67 -8.29,-18.4 -5.8,-30.2l24.16,-114.78l0,-63.12l120,0l0,0z"/>
    <rect fill="#38C6D9" height="20" width="20" y="202.786" x="140.333"/>
    <rect fill="#38C6D9" height="20" width="20" y="242.786" x="180.333"/>
   </g>
  </symbol>
 </defs>
 <g class="layer">
  <title>illustration/purse</title>
  <g id="svg_6"/>
  <use x="1.033362" y="0.68891" transform="matrix(1.003531662540081,0,0,1.0012617073973418,-0.9123832850758697,-0.565400613291534) " xlink:href="#svg_8" id="svg_9"/>
  <g id="svg_10"/>
 </g>
</svg>