<svg width="48" height="48" xmlns="http://www.w3.org/2000/svg" xmlns:svg="http://www.w3.org/2000/svg" xmlns:xlink="http://www.w3.org/1999/xlink">
 <!-- Created with SVG-edit - http://www.86y.org/demo/svg/-->
 <defs>
  <symbol id="svg_1" class="icon" viewBox="0 0 1024 1024" height="800px" width="800px" xmlns="http://www.w3.org/2000/svg">
   <path fill="#F38181" d="m822.144,43.9296l0,-0.9984l-659.328,0l0,937.83552l470.28224,0c1.00864,0.04096 1.95584,0.30208 2.9696,0.30208l176.20992,0c1.01888,0 1.96608,-0.256 2.9696,-0.30208l6.89152,0l0,-0.69632c33.664,-4.82816 59.63264,-33.49504 59.63264,-68.49536l0,-799.15008c0,-35.00032 -25.96352,-63.67232 -59.62752,-68.49536z"/>
   <path fill="#CE6A6A" d="m142.22848,161.61792l201.728,0l0,86.51264l-201.728,0l0,-86.51264zm0,204.7488l201.728,0l0,86.51264l-201.728,0l0,-86.51264zm0,204.75392l201.728,0l0,86.51264l-201.728,0l0,-86.51264zm0,204.7488l201.728,0l0,86.51264l-201.728,0l0,-86.51264zm599.06048,-745.4976l42.25024,0l0,963.26144l-42.25024,0l0,-963.26144z"/>
  </symbol>
 </defs>
 <g class="layer">
  <title>Layer 1</title>
  <use x="-279.858767" y="-59.818064" transform="matrix(0.06261043230112003,0,0,0.061085440368439985,16.707485286630178,3.449703862138943) " xlink:href="#svg_1" id="svg_2"/>
  <g id="svg_3"/>
 </g>
</svg>