<svg width="48" height="48" xmlns="http://www.w3.org/2000/svg" xmlns:svg="http://www.w3.org/2000/svg" xmlns:xlink="http://www.w3.org/1999/xlink">
 <!-- Created with SVG-edit - http://www.86y.org/demo/svg/-->
 <defs>
  <symbol id="svg_2" viewBox="0 0 120 120" height="800px" width="800px" xmlns:xlink="http://www.w3.org/1999/xlink" xmlns="http://www.w3.org/2000/svg">
   <style type="text/css">.st0{fill:#FEE2B3;}
	.st1{opacity:0.1;}
	.st2{fill:#562349;}
	.st3{fill:#AD6989;}
	.st4{fill:#FFA299;}</style>
   <g>
    <rect y="36.4" x="26.6" width="66.9" height="62.8" class="st0"/>
    <rect y="36.4" x="26.6" width="1.6" height="62.8" class="st1"/>
    <path d="m63.8,61.6l-7.7,0c-2.6,0 -4.7,-2.1 -4.7,-4.7l0,-20.5l17.1,0l0,20.5c0,2.6 -2.1,4.7 -4.7,4.7z" class="st2"/>
    <path d="m46.8,61.6l-7.7,0c-2.6,0 -4.7,-2.1 -4.7,-4.7l0,-20.5l17.1,0l0,20.5c0,2.6 -2.1,4.7 -4.7,4.7z" class="st3"/>
    <path d="m29.7,61.6l-7.7,0c-2.6,0 -4.7,-2.1 -4.7,-4.7l0,-20.5l17.1,0l0,20.5c0,2.6 -2.1,4.7 -4.7,4.7z" class="st2"/>
    <path d="m80.9,61.6l-7.7,0c-2.6,0 -4.7,-2.1 -4.7,-4.7l0,-20.5l17.1,0l0,20.5c0,2.6 -2.1,4.7 -4.7,4.7z" class="st3"/>
    <path d="m98,61.6l-7.7,0c-2.6,0 -4.7,-2.1 -4.7,-4.7l0,-20.5l17.1,0l0,20.5c-0.1,2.6 -2.2,4.7 -4.7,4.7z" class="st2"/>
    <g class="st1">
     <path d="m19.1,57.7l0,-20.5l17.1,0l17.1,0l17.1,0l17.1,0l15.3,0l0,-0.8l-17.2,0l-17.1,0l-17,0l-17.1,0l-17,0l0,20.5c0,2.2 1.6,4.1 3.6,4.6c-1.2,-0.9 -1.9,-2.3 -1.9,-3.8z"/>
    </g>
    <rect y="74.4" x="39.4" width="16.4" height="24.8" class="st4"/>
    <g>
     <rect y="84.2" x="68" width="5.4" height="7.4" class="st4"/>
     <rect y="84.2" x="75.8" width="5.4" height="7.4" class="st4"/>
     <rect y="74.4" x="68" width="5.4" height="7.4" class="st4"/>
     <rect y="74.4" x="75.8" width="5.4" height="7.4" class="st4"/>
    </g>
    <path d="m83.1,36.4l-46.2,0l0,-11.2c0,-2.5 2,-4.5 4.5,-4.5l37.2,0c2.5,0 4.5,2 4.5,4.5l0,11.2z" class="st4"/>
    <path d="m38.4,25.7c0,-2.5 2,-4.5 4.5,-4.5l37.2,0c0.2,0 0.4,0 0.6,0.1c-0.6,-0.3 -1.3,-0.6 -2.1,-0.6l-37.2,0c-2.5,0 -4.5,2 -4.5,4.5l0,11.2l1.5,0l0,-10.7z" class="st1"/>
   </g>
  </symbol>
 </defs>
 <g class="layer">
  <title>Layer 1</title>
  <use x="-92.27579" y="-98.99622" transform="matrix(0.08181115587066522,0,0,0.0823335430386257,-1.2535031602774656,-1.201660944620647) " xlink:href="#svg_2" id="svg_3"/>
  <g id="svg_4"/>
 </g>
</svg>