<svg width="48" height="48" xmlns="http://www.w3.org/2000/svg" xmlns:xlink="http://www.w3.org/1999/xlink" version="1.1"  viewBox="0 0 48 48">
 <title>illustration/svgrepo</title>
  <g id="illustration/svgrepo" fill="none" fill-rule="evenodd" stroke="none" stroke-width="1">
   <path d="m23.534023,0c-12.978641,0 -23.534023,10.521256 -23.534023,23.499999c0,10.09325 6.383724,18.700278 15.326495,22.028491l30.384579,-29.73506c-3.181185,-9.193506 -11.897641,-15.79343 -22.177051,-15.79343z" fill="#FF7F4F" id="svg_2"/>
   <path d="m46.999998,23.499999c0,-2.699026 -0.456411,-5.290974 -1.293828,-7.704935l-4.523648,-4.523648l-35.296999,20.608478l5.188902,5.188902l-1.101946,3.117837l5.350439,5.350541c2.546787,0.945313 5.335419,1.462824 8.211104,1.462824c12.978743,0 23.465975,-10.521256 23.465975,-23.499999l0.000001,0z" fill="#FF5419" id="svg_3"/>
   <polygon points="41.18252130556357,11.271519316466083 41.18252130556357,31.879996559871415 23.534022346399297,31.879996559871415 20.43508904186524,21.575758717693816 23.534022346399297,11.271519316466083 " fill="#71E2F0" id="svg_4"/>
   <polygon points="23.534022346399297,11.271519316466083 23.534022346399297,31.879996559871415 18.27819774900945,31.879996559871415 9.972479769032816,40.18673415863532 9.972479769032816,31.879996559871415 5.885523776997559,31.879996559871415 5.885523776997559,11.271519316466083 " fill="#C2FBFF" id="svg_5"/>
   <polygon points="39.13904311466467,13.314997507364978 39.13904311466467,29.83651836897252 23.534022346399297,29.83651836897252 21.4905441555004,21.575758717693816 23.534022346399297,13.314997507364978 " fill="#C2FBFF" id="svg_6"/>
   <rect x="7.929002" y="13.314997" width="15.605021" height="16.521521" fill="#FFFFFF" id="svg_7"/>
   <rect x="9.97248" y="24.640975" width="13.561543" height="2.043478" fill="#366796" id="svg_8"/>
   <polygon points="23.534022346399297,22.597497813143264 37.09556492376578,22.597497813143264 37.09556492376578,20.55401962224437 23.534022346399297,20.55401962224437 22.51228325094985,21.575758717693816 " fill="#121149" id="svg_9"/>
   <rect x="9.97248" y="20.554019" width="13.561543" height="2.043478" fill="#366796" id="svg_10"/>
   <polygon points="23.534022346399297,18.510541431345473 37.09556492376578,18.510541431345473 37.09556492376578,16.467063240446578 23.534022346399297,16.467063240446578 22.51228325094985,17.488802335896025 " fill="#121149" id="svg_11"/>
   <rect x="9.97248" y="16.467062" width="13.561543" height="2.043478" fill="#366796" id="svg_12"/>
  </g>
</svg>