<svg width="48" height="48" xmlns="http://www.w3.org/2000/svg" xmlns:svg="http://www.w3.org/2000/svg" xmlns:xlink="http://www.w3.org/1999/xlink">
 <!-- Created with SVG-edit - http://www.86y.org/demo/svg/-->
 <defs>
  <pattern id="gridpattern" patternUnits="userSpaceOnUse" x="0" y="0" width="100" height="100">
   <image id="svg_1" x="0" y="0" width="100" height="100"/>
  </pattern>
  <pattern height="100" width="100" y="0" x="0" patternUnits="userSpaceOnUse" id="gridpattern">
   <image height="100" width="100" y="0" x="0"/>
  </pattern>
  <symbol id="svg_12" viewBox="0 0 120 120" height="800px" width="800px" xmlns:xlink="http://www.w3.org/1999/xlink" xmlns="http://www.w3.org/2000/svg">
   <style type="text/css">.st0{fill:#9FD8DF;}
	.st1{opacity:0.1;}
	.st2{fill:#FF7171;}</style>
   <g>
    <path d="m60.9,29.8l-25.1,-10.9c-5.3,-2.3 -11.4,0.6 -13,6.2l-7.2,26.4c-0.4,1.6 -0.3,3.2 0.4,4.7l21.6,45.2c1.2,2.6 4.3,3.6 6.9,2.4l39,-18.7c2.6,-1.2 3.6,-4.3 2.4,-6.9l-21.6,-45.2c-0.7,-1.4 -1.9,-2.6 -3.4,-3.2zm-22.6,10.8c-2.9,1.4 -6.3,0.2 -7.7,-2.7c-1.4,-2.9 -0.2,-6.3 2.7,-7.7s6.3,-0.2 7.7,2.7c1.4,2.9 0.1,6.4 -2.7,7.7z" class="st0"/>
    <g class="st1">
     <path d="m84.8,82.6l-39,18.7c-2.6,1.2 -5.6,0.1 -6.9,-2.4l-21.6,-45.2c-0.7,-1.5 -0.8,-3.1 -0.4,-4.7l7.2,-26.4c0.1,-0.2 0.1,-0.4 0.2,-0.6c-0.7,0.9 -1.2,1.9 -1.5,3.1l-7.2,26.4c-0.4,1.6 -0.3,3.2 0.4,4.7l21.6,45.2c1.2,2.6 4.3,3.6 6.9,2.4l39,-18.7c1.5,-0.7 2.5,-2.1 2.8,-3.6c-0.4,0.4 -0.9,0.8 -1.5,1.1z"/>
    </g>
    <path d="m52.7,15.9l-26.6,6.4c-5.6,1.4 -8.7,7.4 -6.6,12.7l10.1,25.5c0.6,1.5 1.7,2.7 3.1,3.5l44.5,23.1c2.5,1.3 5.6,0.3 6.9,-2.2l19.9,-38.4c1.3,-2.5 0.3,-5.6 -2.2,-6.9l-44.4,-23.1c-1.5,-0.8 -3.1,-1 -4.7,-0.6zm-11.5,22.3c-1.5,2.8 -5,3.9 -7.8,2.5s-3.9,-5 -2.5,-7.8c1.5,-2.8 5,-3.9 7.8,-2.5c2.8,1.5 4,5 2.5,7.8z" class="st2"/>
    <path d="m38.7,30.4c2.8,1.5 4,5 2.5,7.8c-0.8,1.5 -2.1,2.5 -3.7,2.9c0.9,-0.5 1.7,-1.3 2.2,-2.3c1.5,-2.8 0.4,-6.3 -2.5,-7.8c-1.3,-0.7 -2.8,-0.8 -4.1,-0.5c1.7,-0.9 3.8,-1 5.6,-0.1z" class="st1"/>
    <g class="st1">
     <path d="m84.8,81.7c-1.3,2.5 -4.4,3.5 -6.9,2.2l-44.5,-23.1c-1.4,-0.7 -2.6,-2 -3.1,-3.5l-10.2,-25.4c-0.5,-1.3 -0.7,-2.6 -0.7,-3.8c-0.8,2.2 -0.9,4.6 0,7l10.1,25.5c0.6,1.5 1.7,2.7 3.1,3.5l44.5,23.1c2.5,1.3 5.6,0.3 6.9,-2.2l19.9,-38.4c0.5,-0.9 0.7,-2 0.5,-3l-19.6,38.1z"/>
    </g>
    <path d="m32.7,64l44.5,23.1c0.4,0.2 0.8,0.4 1.2,0.4l-1.9,0.9c-0.6,-0.1 -1.3,-0.2 -1.9,-0.6l-44.4,-23c-1.4,-0.7 -2.5,-2 -3.1,-3.5l-8.4,-21.1l1.2,-4.2l9.7,24.5c0.6,1.5 1.7,2.8 3.1,3.5z" class="st1"/>
   </g>
  </symbol>
 </defs>
 <g class="layer">
  <title>Layer 1</title>
  <use x="-97.29492" y="-102.04101" transform="matrix(0.07421598026786123,0,0,0.07700665398721807,1.745923709275763,0.9634473987483276) " xlink:href="#svg_12" id="svg_16"/>
  <g id="svg_17"/>
 </g>
</svg>