<svg width="48" height="48" xmlns="http://www.w3.org/2000/svg" xmlns:svg="http://www.w3.org/2000/svg" xmlns:xlink="http://www.w3.org/1999/xlink">
 <!-- Created with SVG-edit - http://www.86y.org/demo/svg/-->
 <defs>
  <pattern height="100" width="100" y="0" x="0" patternUnits="userSpaceOnUse" id="gridpattern">
   <image height="100" width="100" y="0" x="0"/>
  </pattern>
  <symbol id="svg_181" class="icon" viewBox="0 -39.5 1103 1103" height="800px" width="800px" xmlns="http://www.w3.org/2000/svg">
   <path fill="#0092D2" d="m830.888,295.504c111.792,34.984 192.032,120.192 192.032,219.72c0,99.824 -79.616,185.28 -192.032,220.016"/>
   <path fill="#F4A417" d="m682.976,16l-358.48,260.776l-214.616,0c-60.064,0 -108.8,48.704 -108.8,108.8l0,252.944c0,60.096 48.736,108.728 108.8,108.728l214.68,0l358.416,260.752l0,-992z"/>
   <path fill="#EF962F" d="m1.08,510.736l0,127.784c0,60.096 48.736,108.728 108.8,108.728l214.68,0l358.416,260.752l0,-497.264l-681.896,0z"/>
   <path fill="#E5226B" d="m324.56,747.248l-214.68,0c-60.064,0 -108.8,-48.632 -108.8,-108.728l0,-252.944c0,-60.096 48.736,-108.8 108.8,-108.8l214.608,0l0.072,470.472z"/>
   <path fill="#CB1B5B" d="m1.08,638.52c0,60.096 48.736,108.728 108.8,108.728l214.68,0l-0.032,-236.512l-323.448,0l0,127.784z"/>
   <path fill="#1B81CC" d="m830.888,735.232c112.416,-34.736 192.032,-120.192 192.032,-220.016c0,-1.528 -0.416,-2.952 -0.488,-4.48l-191.544,0l0,224.496z"/>
  </symbol>
 </defs>
 <g class="layer">
  <title>Layer 1</title>
  <g id="svg_79"/>
  <g id="svg_163"/>
  <g id="svg_166"/>
  <g id="svg_173"/>
  <g id="svg_180"/>
  <use x="340.96323" y="-578.35588" transform="matrix(0.05855930989142454,0,0,0.06184886182631155,-17.17768437542496,35.30439164448611) " xlink:href="#svg_181" id="svg_182"/>
  <g id="svg_183"/>
 </g>
</svg>