<svg width="48" height="48" xmlns="http://www.w3.org/2000/svg" xmlns:svg="http://www.w3.org/2000/svg" xmlns:xlink="http://www.w3.org/1999/xlink">
 <!-- Created with SVG-edit - http://www.86y.org/demo/svg/-->
 <defs>
  <symbol id="svg_6" viewBox="0 0 120 120" height="800px" width="800px" xmlns:xlink="http://www.w3.org/1999/xlink" xmlns="http://www.w3.org/2000/svg">
   <style type="text/css">.st0{fill:#10AF31;}
	.st1{opacity:0.1;}
	.st2{fill:#98D049;}
	.st3{fill:#F6B138;}
	.st4{fill:#985B0B;}
	.st5{fill:#DE9A2B;}
	.st6{fill:#B17012;}</style>
   <g>
    <g>
     <rect y="37.2" x="46.8" width="50.6" transform="matrix(0.674 -0.7387 0.7387 0.674 -14.5718 70.1)" height="28.7" class="st0"/>
     <polygon points="47.4,60.4 80.1,24.5 78.6,23.2 44.5,60.6 65.7,79.9 67.1,78.4   " class="st1"/>
     <path d="m81.8,34.3l0,0c-1.6,1.8 -4.4,1.9 -6.1,0.3l-0.3,-0.3l-20,22l0.3,0.3c1.8,1.6 1.9,4.4 0.3,6.1l0,0l6.7,6.1l0,0c1.6,-1.8 4.4,-1.9 6.1,-0.3l0.3,0.3l20,-22l-0.3,-0.3c-1.8,-1.6 -1.9,-4.4 -0.3,-6.1l0,0l-6.7,-6.1z" class="st2"/>
     <circle r="6" cy="51.6" cx="72.1" class="st0"/>
    </g>
    <g>
     <rect y="31.3" x="33" width="50.6" transform="matrix(0.4374 -0.8993 0.8993 0.4374 -8.2074 78.0765)" height="28.7" class="st0"/>
     <polygon points="37,61.1 58.2,17.4 56.5,16.6 34.3,62.1 60.1,74.6 61,72.7   " class="st1"/>
     <path d="m62.6,26.3l0,0c-1.1,2.2 -3.7,3.1 -5.8,2l-0.4,-0.2l-13,26.8l0.4,0.2c2.2,1.1 3.1,3.7 2,5.8l0,0l8.1,3.9l0,0c1.1,-2.2 3.7,-3.1 5.8,-2l0.4,0.2l13,-26.8l-0.4,-0.2c-2.2,-1.1 -3.1,-3.7 -2,-5.8l0,0l-8.1,-3.9z" class="st2"/>
     <circle r="6" cy="45.6" cx="58.3" class="st0"/>
    </g>
    <g>
     <rect y="31.7" x="19.2" width="50.6" transform="matrix(-4.559187e-07 -1 1 -4.559187e-07 -1.5403 90.5073)" height="28.7" class="st0"/>
     <polygon points="32.1,69.2 32.1,20.7 30.1,20.7 30.1,71.3 58.8,71.3 58.8,69.2   " class="st1"/>
     <path d="m40,26.8l0,0c0,2.4 -1.9,4.4 -4.4,4.4l-0.4,0l0,29.7l0.4,0c2.4,0 4.4,1.9 4.4,4.4l0,0l9,0l0,0c0,-2.4 1.9,-4.4 4.4,-4.4l0.4,0l0,-29.7l-0.4,0c-2.4,0 -4.4,-1.9 -4.4,-4.4l0,0l-9,0z" class="st2"/>
     <circle r="6" cy="46" cx="44.5" class="st0"/>
    </g>
    <circle r="13.2" cy="45.4" cx="40.3" class="st3"/>
    <circle r="8.8" cy="45.4" cx="40.3" class="st4"/>
    <circle r="6.1" cy="45.4" cx="40.3" class="st5"/>
    <path d="m85.1,103.4l-58.2,0c-3.7,0 -6.7,-3 -6.7,-6.7l0,-42.4c0,-3.7 3,-6.7 6.7,-6.7l58.3,0c3.7,0 6.7,3 6.7,6.7l0,42.5c-0.1,3.7 -3.1,6.6 -6.8,6.6z" class="st6"/>
    <path d="m88.2,102.3l-58.3,0c-3.7,0 -6.7,-3 -6.7,-6.7l0,-42.5c0,-2.2 1.1,-4.2 2.8,-5.4c-3.3,0.4 -5.8,3.2 -5.8,6.6l0,42.5c0,3.7 3,6.7 6.7,6.7l58.3,0c1.4,0 2.8,-0.5 3.9,-1.2c-0.4,-0.1 -0.6,0 -0.9,0z" class="st1"/>
    <path d="m94.7,85l-20.8,0c-1.7,0 -3.2,-1.4 -3.2,-3.2l0,-12.5c0,-1.7 1.4,-3.2 3.2,-3.2l20.7,0c1.7,0 3.2,1.4 3.2,3.2l0,12.5c0,1.7 -1.4,3.2 -3.1,3.2z" class="st6"/>
    <circle r="4.5" cy="75.5" cx="80.4" class="st4"/>
    <path d="m81.3,79.6c-2.5,0 -4.5,-2 -4.5,-4.5c0,-1.6 0.9,-3 2.2,-3.8c-1.8,0.6 -3,2.3 -3,4.2c0,2.5 2,4.5 4.5,4.5c0.8,0 1.6,-0.2 2.3,-0.7c-0.5,0.2 -1,0.3 -1.5,0.3z" class="st1"/>
    <path d="m96.3,84.4l-20.7,0c-1.7,0 -3.2,-1.4 -3.2,-3.2l0,-12.4c0,-1.1 0.6,-2.1 1.4,-2.6c-1.7,0.1 -3,1.4 -3,3.2l0,12.5c0,1.7 1.4,3.2 3.2,3.2l20.7,0c0.7,0 1.3,-0.2 1.8,-0.5c-0.1,-0.2 -0.2,-0.2 -0.2,-0.2z" class="st1"/>
    <g>
     <path d="m30.1,37.1c2.2,-2.7 5.6,-4.5 9.3,-4.8c-0.3,0 -0.6,0 -0.9,0c-3.2,0 -6.1,1.1 -8.4,3l0,1.8z" class="st1"/>
    </g>
   </g>
  </symbol>
 </defs>
 <g class="layer">
  <title>Layer 1</title>
  <g id="svg_4"/>
  <use x="-94.48444" y="-99.40155" transform="matrix(0.0851400142708751,0,0,0.07676645831062189,-1.7990107797744945,0.42512683929779155) " xlink:href="#svg_6" id="svg_7"/>
  <g id="svg_8"/>
 </g>
</svg>