{
  "accessors": [
    {
      "bufferView": 2,
      "componentType": 5126,
      "count": 65532,
      "max": [
        8.584019660949707,
        -2.413320779800415,
        -12.324400901794434
      ],
      "min": [
        -15.568300247192383,
        -11.35680103302002,
        -22.154199600219727
      ],
      "type": "VEC3"
    },
    {
      "bufferView": 2,
      "byteOffset": 786384,
      "componentType": 5126,
      "count": 65532,
      "max": [
        0.99985259771347046,
        0.99998581409454346,
        0.99999594688415527
      ],
      "min": [
        -0.99995332956314087,
        -0.99999505281448364,
        -0.99999910593032837
      ],
      "type": "VEC3"
    },
    {
      "bufferView": 1,
      "componentType": 5126,
      "count": 65532,
      "max": [
        0.95801901817321777,
        0.99800801277160645
      ],
      "min": [
        0.0019120000069960952,
        0.0019920000340789557
      ],
      "type": "VEC2"
    },
    {
      "bufferView": 0,
      "componentType": 5125,
      "count": 334413,
      "max": [
        65531
      ],
      "min": [
        0
      ],
      "type": "SCALAR"
    },
    {
      "bufferView": 2,
      "byteOffset": 1572768,
      "componentType": 5126,
      "count": 3470,
      "max": [
        6.5717201232910156,
        -2.4452900886535645,
        -12.605657577514648
      ],
      "min": [
        -15.551199913024902,
        -10.628600120544434,
        -21.857099533081055
      ],
      "type": "VEC3"
    },
    {
      "bufferView": 2,
      "byteOffset": 1614408,
      "componentType": 5126,
      "count": 3470,
      "max": [
        0.99820154905319214,
        0.99942201375961304,
        0.99944424629211426
      ],
      "min": [
        -0.99811410903930664,
        -0.99699288606643677,
        -0.99989843368530273
      ],
      "type": "VEC3"
    },
    {
      "bufferView": 1,
      "byteOffset": 524256,
      "componentType": 5126,
      "count": 3470,
      "max": [
        0.95801901817321777,
        0.99799400568008423
      ],
      "min": [
        0.011454000137746334,
        0.19088299572467804
      ],
      "type": "VEC2"
    },
    {
      "bufferView": 0,
      "byteOffset": 1337652,
      "componentType": 5125,
      "count": 11910,
      "max": [
        3469
      ],
      "min": [
        0
      ],
      "type": "SCALAR"
    }
  ],
  "asset": {
    "extras": {
      "author": "brycelynch (https://sketchfab.com/cyoung1971)",
      "license": "CC-BY-4.0 (http://creativecommons.org/licenses/by/4.0/)",
      "source": "https://sketchfab.com/3d-models/asics-gel-nimbus-20-f070417312104ab2a1e71aae72934e1a",
      "title": "Asics Gel Nimbus 20"
    },
    "generator": "Sketchfab-7.39.0",
    "version": "2.0"
  },
  "bufferViews": [
    {
      "buffer": 0,
      "byteLength": 1385292,
      "byteOffset": 0,
      "name": "floatBufferViews",
      "target": 34963
    },
    {
      "buffer": 0,
      "byteLength": 552016,
      "byteOffset": 1385292,
      "byteStride": 8,
      "name": "floatBufferViews",
      "target": 34962
    },
    {
      "buffer": 0,
      "byteLength": 1656048,
      "byteOffset": 1937308,
      "byteStride": 12,
      "name": "floatBufferViews",
      "target": 34962
    }
  ],
  "buffers": [
    {
      "byteLength": 3593356,
      "uri": "scene.bin"
    }
  ],
  "images": [
    {
      "uri": "textures/material0_baseColor.jpeg"
    }
  ],
  "materials": [
    {
      "doubleSided": true,
      "emissiveFactor": [
        0,
        0,
        0
      ],
      "name": "material0",
      "pbrMetallicRoughness": {
        "baseColorFactor": [
          1,
          1,
          1,
          1
        ],
        "baseColorTexture": {
          "index": 0,
          "texCoord": 0
        },
        "metallicFactor": 0,
        "roughnessFactor": 0.95770514946237739
      }
    }
  ],
  "meshes": [
    {
      "name": "Model_material0_0",
      "primitives": [
        {
          "attributes": {
            "NORMAL": 1,
            "POSITION": 0,
            "TEXCOORD_0": 2
          },
          "indices": 3,
          "material": 0,
          "mode": 4
        }
      ]
    },
    {
      "name": "Model_material0_0",
      "primitives": [
        {
          "attributes": {
            "NORMAL": 5,
            "POSITION": 4,
            "TEXCOORD_0": 6
          },
          "indices": 7,
          "material": 0,
          "mode": 4
        }
      ]
    }
  ],
  "nodes": [
    {
      "children": [
        1
      ],
      "name": "RootNode (gltf orientation matrix)",
      "rotation": [
        -0.70710678118654746,
        -0,
        -0,
        0.70710678118654757
      ]
    },
    {
      "children": [
        2
      ],
      "matrix": [
        0.99946236610412598,
        2.1684043449710089e-19,
        -0.032787304371595383,
        0,
        0.00211493787355721,
        -0.99791741371154785,
        0.064470097422599792,
        0,
        -0.032719023525714874,
        -0.064504779875278473,
        -0.99738085269927979,
        0,
        0.54761397838592529,
        14.867780685424805,
        33.875064849853516,
        1
      ],
      "name": "RootNode (model correction matrix)"
    },
    {
      "children": [
        3
      ],
      "matrix": [
        1,
        0,
        0,
        0,
        0,
        -1,
        0,
        0,
        0,
        0,
        -1,
        0,
        0,
        0,
        0,
        1
      ],
      "name": "db7aabe94f1e4ed88abb69b089f1c7c6.fbx"
    },
    {
      "children": [
        4
      ],
      "name": "RootNode"
    },
    {
      "children": [
        5,
        6
      ],
      "name": "Model"
    },
    {
      "mesh": 0,
      "name": "Model_material0_0"
    },
    {
      "mesh": 1,
      "name": "Model_material0_0"
    }
  ],
  "samplers": [
    {
      "magFilter": 9729,
      "minFilter": 9987,
      "wrapS": 10497,
      "wrapT": 10497
    }
  ],
  "scene": 0,
  "scenes": [
    {
      "name": "OSG_Scene",
      "nodes": [
        0
      ]
    }
  ],
  "textures": [
    {
      "sampler": 0,
      "source": 0
    }
  ]
}

