<svg id="图层_1" data-name="图层 1" xmlns="http://www.w3.org/2000/svg" width="400" height="400" viewBox="0 0 400 400"><defs><style>.cls-1{fill:none;}.cls-1,.cls-2{stroke:#ed6d00;stroke-linecap:round;stroke-linejoin:round;stroke-width:16px;}.cls-2{fill:#fff;}</style></defs><title>装修流程</title><path class="cls-1" d="M179.32,41.81H328.68A22.21,22.21,0,0,1,350.89,64V321.39a22.21,22.21,0,0,1-22.21,22.21H71.32a22.21,22.21,0,0,1-22.21-22.21V64A22.21,22.21,0,0,1,71.32,41.81h40.59"/><rect class="cls-2" x="191.96" y="201.9" width="96.51" height="174.26" rx="48.26"/><line class="cls-1" x1="192.34" y1="252.83" x2="288.47" y2="252.83"/><path class="cls-1" d="M142.55,41.81V173.56s4.09,13.27,25.54,13.27,25.53-14,25.53-14V98s5.83-12.25,23.95-12.25S242.13,98,242.13,98V247.43"/></svg>