<svg id="图层_1" data-name="图层 1" xmlns="http://www.w3.org/2000/svg" width="400" height="400" viewBox="0 0 400 400"><defs><style>.cls-1,.cls-2{fill:none;stroke:#ed6d00;stroke-width:16px;}.cls-1{stroke-miterlimit:10;}.cls-2{stroke-linecap:round;stroke-linejoin:round;}</style></defs><title>装修流程</title><rect class="cls-1" x="92.23" y="114.54" width="281.46" height="126.22" rx="12" transform="translate(193.85 -112.69) rotate(45)"/><line class="cls-2" x1="162.6" y1="97.11" x2="202.13" y2="57.57"/><line class="cls-2" x1="148.58" y1="113.26" x2="138.05" y2="123.78"/><path class="cls-2" d="M147.85,266.19s3.35-3.42,9-9.07c13.27-13.27,23.67,0,23.67,0l78.59,78.58c32.23,32.24,61.21,4.77,61.21,4.77l23.81-23.81s17-18-13-38.15"/><path class="cls-1" d="M147.71,302.79,83.8,366.71a6.92,6.92,0,0,1-9.75,0L48.59,341.25a6.92,6.92,0,0,1,0-9.75l63.91-63.91,38.19-3Z"/></svg>