<svg id="图层_1" data-name="图层 1" xmlns="http://www.w3.org/2000/svg" width="400" height="400" viewBox="0 0 400 400"><defs><style>.cls-1{fill:#ed6d00;}.cls-2{fill:none;stroke:#ed6d00;stroke-linecap:round;stroke-linejoin:round;stroke-width:16px;}</style></defs><title>装修流程</title><path class="cls-1" d="M200,51.57a107.58,107.58,0,1,1-76.07,31.51A106.87,106.87,0,0,1,200,51.57m0-16A123.58,123.58,0,1,0,323.58,159.15,123.58,123.58,0,0,0,200,35.57Z"/><path class="cls-1" d="M200,113.11a46,46,0,1,1-46,46,46.09,46.09,0,0,1,46-46m0-16a62,62,0,1,0,62,62,62,62,0,0,0-62-62Z"/><polyline class="cls-2" points="140.3 267.37 140.3 365.96 200 326.89 257.58 365.96 257.58 267.37"/></svg>