<svg id="图层_1" data-name="图层 1" xmlns="http://www.w3.org/2000/svg" width="400" height="400" viewBox="0 0 400 400"><defs><style>.cls-1{fill:none;}.cls-1,.cls-3{stroke:#ed6d00;stroke-miterlimit:10;stroke-width:16px;fill-rule:evenodd;}.cls-2{fill:#ed6d00;}.cls-3,.cls-4{fill:#fff;}</style></defs><title>装修流程</title><path class="cls-1" d="M48,221.38l140.4-81.87s29.11-15.32,58.22,13.79,0,72.53,0,72.53L108,306.19"/><path class="cls-2" d="M78.18,219.51a43.66,43.66,0,1,1-43.65,43.66,43.71,43.71,0,0,1,43.65-43.66m0-16a59.66,59.66,0,1,0,59.66,59.66,59.66,59.66,0,0,0-59.66-59.66Z"/><path class="cls-2" d="M78.18,248.6a14.57,14.57,0,1,1-14.56,14.57A14.59,14.59,0,0,1,78.18,248.6m0-10a24.57,24.57,0,1,0,24.57,24.57A24.57,24.57,0,0,0,78.18,238.6Z"/><path class="cls-3" d="M164.18,256.63l140.4-81.87s41.48-22.87,68.66,17.79c23.37,46-10.45,68.53-10.45,68.53L224.16,341.44"/><path class="cls-3" d="M133.72,127,274.13,45.09s41.47-22.87,68.66,17.79c23.36,46.05-10.45,68.53-10.45,68.53L193.7,211.77"/><path class="cls-4" d="M164.18,220.49a51.66,51.66,0,1,1,51.65-51.66A51.72,51.72,0,0,1,164.18,220.49Z"/><path class="cls-2" d="M164.18,125.18a43.66,43.66,0,1,1-43.66,43.65,43.7,43.7,0,0,1,43.66-43.65m0-16a59.66,59.66,0,1,0,59.65,59.65,59.66,59.66,0,0,0-59.65-59.65Z"/><path class="cls-2" d="M164.18,154.17a14.57,14.57,0,1,1-14.57,14.57,14.58,14.58,0,0,1,14.57-14.57m0-10a24.57,24.57,0,1,0,24.56,24.57,24.57,24.57,0,0,0-24.56-24.57Z"/><path class="cls-4" d="M199.27,346.59a51.66,51.66,0,1,1,51.65-51.65A51.71,51.71,0,0,1,199.27,346.59Z"/><path class="cls-2" d="M199.27,251.28a43.66,43.66,0,1,1-43.66,43.66,43.71,43.71,0,0,1,43.66-43.66m0-16a59.66,59.66,0,1,0,59.65,59.66,59.66,59.66,0,0,0-59.65-59.66Z"/><circle class="cls-4" cx="199.27" cy="290.73" r="19.57"/><path class="cls-2" d="M199.27,276.17a14.57,14.57,0,1,1-14.57,14.56,14.57,14.57,0,0,1,14.57-14.56m0-10a24.57,24.57,0,1,0,24.56,24.56,24.57,24.57,0,0,0-24.56-24.56Z"/></svg>