<svg id="图层_1" data-name="图层 1" xmlns="http://www.w3.org/2000/svg" width="400" height="400" viewBox="0 0 400 400"><defs><style>.cls-1{fill:#ed6d00;}</style></defs><title>装修流程</title><path class="cls-1" d="M201.57,82.5A105.62,105.62,0,0,0,155.27,283v45.65a31.5,31.5,0,0,0,18.78,28.8v9.82a20,20,0,0,0,20,20.05h15.36a20,20,0,0,0,20.06-20.05v-9.82a31.5,31.5,0,0,0,18.77-28.8V283A105.89,105.89,0,0,0,307.6,188.1c-.43-58.24-47.79-105.6-106-105.6Zm7.67,289.93H193.88a5.2,5.2,0,0,1-5.12-5.12v-7h25.61v7a5.2,5.2,0,0,1-5.13,5.12Zm7-27.1H186.85a16.65,16.65,0,0,1-16.64-16.64V310.77h62.93v17.92a17,17,0,0,1-16.85,16.64Zm-14.72-108.8-16-29.23h31.79Zm35.84,34.77-4.48,1.92v22.62H209V251.89a11.41,11.41,0,0,0,3-3.41l21.76-40.11a10.2,10.2,0,0,0-.21-10.45,12,12,0,0,0-10.24-5.55H179.59a12,12,0,0,0-10.24,5.55,10.19,10.19,0,0,0-.21,10.45l22,40.32a11.72,11.72,0,0,0,3,3.42v43.73H170.21V273.22l-4.48-1.92a90.67,90.67,0,1,1,126.72-83.2,91.43,91.43,0,0,1-55,83.2ZM21.49,167h39.6v15.29H21.49ZM101.1,94.09l-28-28L83.91,55.27l28,28ZM289,83.28l28-28,10.82,10.82-28,28ZM339.42,167H379v15.29H339.42ZM192.61,14.73h15.3v39.6h-15.3Zm0,0"/></svg>