<?xml version="1.0" standalone="no"?><!DOCTYPE svg PUBLIC "-//W3C//DTD SVG 1.1//EN" "http://www.w3.org/Graphics/SVG/1.1/DTD/svg11.dtd"><svg t="1575528736485" class="icon" viewBox="0 0 1024 1024" version="1.1" xmlns="http://www.w3.org/2000/svg" p-id="2080" xmlns:xlink="http://www.w3.org/1999/xlink" width="200" height="200"><defs><style type="text/css"></style></defs><path d="M499.136 64c-94.976 0-189.952 36.224-262.4 108.736-145.024 144.896-145.024 379.84 0 524.736L499.136 960l262.4-262.528c145.088-145.024 145.088-379.968 0-524.736C689.152 100.224 594.112 64 499.136 64L499.136 64zM499.136 576C463.808 576 431.808 561.6 408.64 538.496 385.472 515.392 371.136 483.392 371.136 448c0-70.72 57.28-128 128-128 70.72 0 128 57.28 128 128 0 35.392-14.4 67.392-37.504 90.496C566.528 561.6 534.464 576 499.136 576L499.136 576z" p-id="2081" fill="#ec6c00"></path></svg>